<svg class="animated" id="freepik_stories-call-center" xmlns="http://www.w3.org/2000/svg" xmlns:xlink="http://www.w3.org/1999/xlink" viewBox="0 0 500 500" version="1.1" xmlns:svgjs="http://svgjs.com/svgjs"><style>svg#freepik_stories-call-center:not(.animated) .animable {opacity: 0;}svg#freepik_stories-call-center.animated #freepik--background-simple--inject-88 {animation: 1s 1 forwards cubic-bezier(.36,-0.01,.5,1.38) zoomOut;animation-delay: 0s;}svg#freepik_stories-call-center.animated #freepik--Window--inject-88 {animation: 1s 1 forwards cubic-bezier(.36,-0.01,.5,1.38) slideLeft;animation-delay: 0s;}svg#freepik_stories-call-center.animated #freepik--Plants--inject-88 {animation: 1s 1 forwards cubic-bezier(.36,-0.01,.5,1.38) lightSpeedLeft;animation-delay: 0s;}svg#freepik_stories-call-center.animated #freepik--character-2--inject-88 {animation: 1s 1 forwards cubic-bezier(.36,-0.01,.5,1.38) zoomIn;animation-delay: 0s;}svg#freepik_stories-call-center.animated #freepik--character-1--inject-88 {animation: 1s 1 forwards cubic-bezier(.36,-0.01,.5,1.38) slideDown;animation-delay: 0s;}svg#freepik_stories-call-center.animated #freepik--text-balloon--inject-88 {animation: 1s 1 forwards cubic-bezier(.36,-0.01,.5,1.38) lightSpeedLeft,6s Infinite  linear heartbeat;animation-delay: 0s,1s;}svg#freepik_stories-call-center.animated #freepik--device-2--inject-88 {animation: 1s 1 forwards cubic-bezier(.36,-0.01,.5,1.38) slideLeft;animation-delay: 0s;}svg#freepik_stories-call-center.animated #freepik--device-1--inject-88 {animation: 1s 1 forwards cubic-bezier(.36,-0.01,.5,1.38) fadeIn;animation-delay: 0s;}svg#freepik_stories-call-center.animated #freepik--Table--inject-88 {animation: 1s 1 forwards cubic-bezier(.36,-0.01,.5,1.38) lightSpeedRight;animation-delay: 0s;}            @keyframes zoomOut {                0% {                    opacity: 0;                    transform: scale(1.5);                }                100% {                    opacity: 1;                    transform: scale(1);                }            }                    @keyframes slideLeft {                0% {                    opacity: 0;                    transform: translateX(-30px);                }                100% {                    opacity: 1;                    transform: translateX(0);                }            }                    @keyframes lightSpeedLeft {              from {                transform: translate3d(-50%, 0, 0) skewX(20deg);                opacity: 0;              }              60% {                transform: skewX(-10deg);                opacity: 1;              }              80% {                transform: skewX(2deg);              }              to {                opacity: 1;                transform: translate3d(0, 0, 0);              }            }                    @keyframes zoomIn {                0% {                    opacity: 0;                    transform: scale(0.5);                }                100% {                    opacity: 1;                    transform: scale(1);                }            }                    @keyframes slideDown {                0% {                    opacity: 0;                    transform: translateY(-30px);                }                100% {                    opacity: 1;                    transform: translateY(0);                }            }                    @keyframes heartbeat {                0% {                    transform: scale(1);                }                10% {                    transform: scale(1.1);                }                30% {                    transform: scale(1);                }                40% {                    transform: scale(1);                }                50% {                    transform: scale(1.1);                }                60% {                    transform: scale(1);                }                100% {                    transform: scale(1);                }            }                    @keyframes fadeIn {                0% {                    opacity: 0;                }                100% {                    opacity: 1;                }            }                    @keyframes lightSpeedRight {              from {                transform: translate3d(50%, 0, 0) skewX(-20deg);                opacity: 0;              }              60% {                transform: skewX(10deg);                opacity: 1;              }              80% {                transform: skewX(-2deg);              }              to {                opacity: 1;                transform: translate3d(0, 0, 0);              }            }        </style><g id="freepik--background-simple--inject-88" class="animable" style="transform-origin: 238.695px 253.334px;"><path d="M124.15,435.32s52.15,27.11,111.75-1.47,79-84,109.88-125.58c16.2-21.79,42.7-33.93,62.92-52.25C473.34,197.43,450,99.48,390.88,72.6,339.67,49.33,280.52,57.67,207.23,97.06S81.13,161.88,42.65,240.38,59.31,397.33,124.15,435.32Z" style="fill: rgb(62, 176, 93); transform-origin: 238.695px 253.334px;" id="el3ddfkhnwt9o" class="animable"></path><g id="eljs7iw2gxw3"><path d="M124.15,435.32s52.15,27.11,111.75-1.47,79-84,109.88-125.58c16.2-21.79,42.7-33.93,62.92-52.25C473.34,197.43,450,99.48,390.88,72.6,339.67,49.33,280.52,57.67,207.23,97.06S81.13,161.88,42.65,240.38,59.31,397.33,124.15,435.32Z" style="fill: rgb(255, 255, 255); opacity: 0.8; transform-origin: 238.695px 253.334px;" class="animable"></path></g></g><g id="freepik--Window--inject-88" class="animable" style="transform-origin: 233.665px 223.175px;"><line x1="36.66" y1="368.26" x2="439.71" y2="368.26" style="fill: none; stroke: rgb(38, 50, 56); stroke-miterlimit: 10; transform-origin: 238.185px 368.26px;" id="elvqls2o4p4m" class="animable"></line><line x1="36.66" y1="291.95" x2="439.71" y2="291.95" style="fill: none; stroke: rgb(38, 50, 56); stroke-miterlimit: 10; transform-origin: 238.185px 291.95px;" id="el8fqsuybzhs9" class="animable"></line><line x1="36.66" y1="215.64" x2="439.71" y2="215.64" style="fill: none; stroke: rgb(38, 50, 56); stroke-miterlimit: 10; transform-origin: 238.185px 215.64px;" id="elyk9nti4q0p9" class="animable"></line><line x1="36.66" y1="139.33" x2="439.71" y2="139.33" style="fill: none; stroke: rgb(38, 50, 56); stroke-miterlimit: 10; transform-origin: 238.185px 139.33px;" id="els25pl2dhu" class="animable"></line><line x1="128.3" y1="96" x2="128.3" y2="368.44" style="fill: none; stroke: rgb(38, 50, 56); stroke-miterlimit: 10; transform-origin: 128.3px 232.22px;" id="elw27nwqvi8q" class="animable"></line><line x1="370.56" y1="96" x2="370.56" y2="368.44" style="fill: none; stroke: rgb(38, 50, 56); stroke-miterlimit: 10; transform-origin: 370.56px 232.22px;" id="elzo2mqi86x9k" class="animable"></line><line x1="137.3" y1="196.99" x2="134.3" y2="200.15" style="fill: none; stroke: rgb(38, 50, 56); stroke-miterlimit: 10; transform-origin: 135.8px 198.57px;" id="elmtt87nnt7ai" class="animable"></line><line x1="188.39" y1="143.11" x2="140.91" y2="193.18" style="fill: none; stroke: rgb(38, 50, 56); stroke-miterlimit: 10; transform-origin: 164.65px 168.145px;" id="el9pk96pzywj" class="animable"></line><line x1="191.35" y1="151.26" x2="164.68" y2="178.67" style="fill: none; stroke: rgb(38, 50, 56); stroke-miterlimit: 10; transform-origin: 178.015px 164.965px;" id="elctb41zehm0t" class="animable"></line><line x1="380.93" y1="196.99" x2="377.93" y2="200.15" style="fill: none; stroke: rgb(38, 50, 56); stroke-miterlimit: 10; transform-origin: 379.43px 198.57px;" id="elq4d2aayfiw" class="animable"></line><line x1="432.01" y1="143.11" x2="384.54" y2="193.18" style="fill: none; stroke: rgb(38, 50, 56); stroke-miterlimit: 10; transform-origin: 408.275px 168.145px;" id="el4haid21d4w2" class="animable"></line><line x1="434.98" y1="151.26" x2="408.31" y2="178.67" style="fill: none; stroke: rgb(38, 50, 56); stroke-miterlimit: 10; transform-origin: 421.645px 164.965px;" id="el4o908p6235" class="animable"></line><line x1="30.62" y1="351.09" x2="27.62" y2="354.25" style="fill: none; stroke: rgb(38, 50, 56); stroke-miterlimit: 10; transform-origin: 29.12px 352.67px;" id="elkv1g5eoxq2" class="animable"></line><line x1="81.7" y1="297.2" x2="34.23" y2="347.28" style="fill: none; stroke: rgb(38, 50, 56); stroke-miterlimit: 10; transform-origin: 57.965px 322.24px;" id="el8824o46bufw" class="animable"></line><line x1="84.67" y1="305.35" x2="57.99" y2="332.77" style="fill: none; stroke: rgb(38, 50, 56); stroke-miterlimit: 10; transform-origin: 71.33px 319.06px;" id="elc40ij0l7zh9" class="animable"></line><line x1="69.88" y1="131.8" x2="66.89" y2="134.96" style="fill: none; stroke: rgb(38, 50, 56); stroke-miterlimit: 10; transform-origin: 68.385px 133.38px;" id="el9bhcf3fktqs" class="animable"></line><line x1="120.97" y1="77.91" x2="73.5" y2="127.98" style="fill: none; stroke: rgb(38, 50, 56); stroke-miterlimit: 10; transform-origin: 97.235px 102.945px;" id="elugou80ubjvg" class="animable"></line><line x1="123.93" y1="86.06" x2="97.26" y2="113.47" style="fill: none; stroke: rgb(38, 50, 56); stroke-miterlimit: 10; transform-origin: 110.595px 99.765px;" id="el9zvwtv78q08" class="animable"></line><line x1="291.88" y1="131.8" x2="288.89" y2="134.96" style="fill: none; stroke: rgb(38, 50, 56); stroke-miterlimit: 10; transform-origin: 290.385px 133.38px;" id="els95mvhsvyao" class="animable"></line><line x1="342.97" y1="77.91" x2="295.5" y2="127.98" style="fill: none; stroke: rgb(38, 50, 56); stroke-miterlimit: 10; transform-origin: 319.235px 102.945px;" id="ele067qxmtxyk" class="animable"></line><line x1="345.93" y1="86.06" x2="319.26" y2="113.47" style="fill: none; stroke: rgb(38, 50, 56); stroke-miterlimit: 10; transform-origin: 332.595px 99.765px;" id="elthg61nytqm" class="animable"></line><line x1="223.24" y1="276.26" x2="220.24" y2="279.42" style="fill: none; stroke: rgb(38, 50, 56); stroke-miterlimit: 10; transform-origin: 221.74px 277.84px;" id="eltagf7e9lnnb" class="animable"></line><line x1="274.32" y1="222.38" x2="226.85" y2="272.45" style="fill: none; stroke: rgb(38, 50, 56); stroke-miterlimit: 10; transform-origin: 250.585px 247.415px;" id="elmi7tn6tfw5" class="animable"></line><line x1="277.29" y1="230.53" x2="250.62" y2="257.94" style="fill: none; stroke: rgb(38, 50, 56); stroke-miterlimit: 10; transform-origin: 263.955px 244.235px;" id="el16z7bdf14jc" class="animable"></line></g><g id="freepik--Plants--inject-88" class="animable" style="transform-origin: 434.935px 293.06px;"><path d="M427.92,424.65s-24.76-52.76-19.38-54.28,16.66,6.88,16.66,6.88-33.1-88.7-24.53-95.58S425.24,310,425.24,310,408.15,255.67,410.16,235s23.72-.76,23.72-.76-17.39-74.17-1.24-78,15.61,84.87,15.61,84.87,5.3-63.47,11.77-45.88-7.13,76.46-7.13,76.46,8.87-19.88,13.8-1.53-9.8,92.52-9.8,92.52,12.52-12.23,13.69,3.06-25.92,62.7-25.92,62.7L429.33,430Z" style="fill: rgb(62, 176, 93); transform-origin: 434.935px 293.06px;" id="elk3ld4kxqp2" class="animable"></path><g id="elg5kfonodm3"><path d="M427.92,424.65s-24.76-52.76-19.38-54.28,16.66,6.88,16.66,6.88-33.1-88.7-24.53-95.58S425.24,310,425.24,310,408.15,255.67,410.16,235s23.72-.76,23.72-.76-17.39-74.17-1.24-78,15.61,84.87,15.61,84.87,5.3-63.47,11.77-45.88-7.13,76.46-7.13,76.46,8.87-19.88,13.8-1.53-9.8,92.52-9.8,92.52,12.52-12.23,13.69,3.06-25.92,62.7-25.92,62.7L429.33,430Z" style="fill: rgb(255, 255, 255); opacity: 0.6; transform-origin: 434.935px 293.06px;" class="animable"></path></g><path d="M433.21,427s-20.64-36.7-16.82-43.59,15.29,9.18,15.29,9.18-26-65-22.17-71.11,16.06,20.65,16.06,20.65-4.59-89.46,3.05-86.41S437,301.55,437,301.55s-4.58-101.69,2.3-98.63,6.12,116.22,6.12,116.22,13.76-43.59,16.05-23.71-17.58,73.41-17.58,73.41S463,326.78,465.33,349,450,412.42,450,412.42s6.88-16.82,6.88-7.65-5.35,20.65-5.35,20.65" style="fill: none; stroke: rgb(38, 50, 56); stroke-linecap: round; stroke-linejoin: round; transform-origin: 437.333px 314.926px;" id="eleod8ugsbyjr" class="animable"></path></g><g id="freepik--character-2--inject-88" class="animable" style="transform-origin: 330.157px 315.82px;"><polygon points="376.42 313.24 404.27 374.02 386.75 378.96 366.09 353.24 376.42 313.24" style="fill: rgb(62, 176, 93); transform-origin: 385.18px 346.1px;" id="elh5j9jnw0g6n" class="animable"></polygon><g style="clip-path: url(&quot;#freepik--clip-path--inject-88&quot;); transform-origin: 385.21px 350.28px;" id="elhgjfu921whc" class="animable"><g id="ellvrofed3kt"><g style="opacity: 0.1; transform-origin: 385.21px 350.28px;" class="animable"><polygon points="371.39 332.7 370.21 337.29 393.34 377.1 396.66 376.17 371.39 332.7" id="el12ux6cfh4auq" class="animable" style="transform-origin: 383.435px 354.9px;"></polygon><polygon points="386.88 378.93 390.22 377.99 368.7 343.12 367.55 347.59 386.88 378.93" id="el30vg91oi43v" class="animable" style="transform-origin: 378.885px 361.025px;"></polygon><polygon points="374.25 321.63 373.03 326.37 399.59 375.34 402.87 374.41 374.25 321.63" id="elutkz9kb9ib" class="animable" style="transform-origin: 387.95px 348.485px;"></polygon></g></g></g><polygon points="376.42 313.24 404.27 374.02 386.75 378.96 366.09 353.24 376.42 313.24" style="fill: none; stroke: rgb(38, 50, 56); stroke-linecap: round; stroke-linejoin: round; transform-origin: 385.18px 346.1px;" id="eljflh9uzm9yq" class="animable"></polygon><polygon points="321.03 296.31 284.76 313.02 304.1 391.49 297.94 424.5 366.75 424.5 359.94 388.63 376.64 313.24 338.61 297.63 321.03 296.31" style="fill: rgb(62, 176, 93); transform-origin: 330.7px 360.405px;" id="elsw47ovamj9" class="animable"></polygon><g style="clip-path: url(&quot;#freepik--clip-path-2--inject-88&quot;); transform-origin: 334.21px 361.035px;" id="el81uxsl97kmw" class="animable"><g id="elqqf5wkur4vs"><g style="opacity: 0.1; transform-origin: 334.21px 361.035px;" class="animable"><path d="M321.36,424.5l1.39-31.26a2.2,2.2,0,0,0,0-.44l-14.25-90.71-4.2,1.93,14,89.25-1.39,31.23Z" id="eloetzhh4wwxa" class="animable" style="transform-origin: 313.531px 363.295px;"></path><path d="M329.7,385.76s0-.08,0-.12L318.4,297.52l-4.23,2,11.1,86.67,2.86,38.36h4.46Z" id="eluhlyd6qqpgb" class="animable" style="transform-origin: 323.38px 361.035px;"></path><path d="M308.78,424.5l4-30.51a2.22,2.22,0,0,0,0-.68l-15.25-86.15-4.17,1.92,15,84.67-4,30.75Z" id="el75cnu13zwt" class="animable" style="transform-origin: 303.083px 365.83px;"></path><path d="M375.06,312.59l-4.19-1.72-15.29,79.07a2.27,2.27,0,0,0,0,.78l5.5,33.78h4.51L360,390.4l.13-.65-.22-1.12,3.35-15.09Z" id="eld8md14u7ga5" class="animable" style="transform-origin: 365.303px 367.685px;"></path><polygon points="334.98 305.29 330.54 305.42 334.23 424.5 338.67 424.5 334.98 305.29" id="el4ytluo7szif" class="animable" style="transform-origin: 334.605px 364.895px;"></polygon><path d="M350.57,389.82l14.77-81.22-4.2-1.73-15,82.54a2,2,0,0,0,0,.77L352,424.5h4.51Z" id="elnwu7a4amt2" class="animable" style="transform-origin: 355.721px 365.685px;"></path><path d="M342.5,387.06l11.23-83.23-4.25-1.74-11.42,84.65a2,2,0,0,0,0,.54l4.14,37.22h4.47Z" id="elbmdqby45j5j" class="animable" style="transform-origin: 345.886px 363.295px;"></path></g></g></g><polygon points="321.03 296.31 284.76 313.02 304.1 391.49 297.94 424.5 366.75 424.5 359.94 388.63 376.64 313.24 338.61 297.63 321.03 296.31" style="fill: none; stroke: rgb(38, 50, 56); stroke-linecap: round; stroke-linejoin: round; transform-origin: 330.7px 360.405px;" id="elb2ff4wnfg85" class="animable"></polygon><polygon points="284.76 313.02 256.19 374.89 274.43 378.74 295.09 353.02 284.76 313.02" style="fill: rgb(62, 176, 93); transform-origin: 275.64px 345.88px;" id="elfe9hvdrma9w" class="animable"></polygon><g style="clip-path: url(&quot;#freepik--clip-path-3--inject-88&quot;); transform-origin: 276.905px 348.925px;" id="elxg0vx1qs8w" class="animable"><g id="elba56u2p4rw5"><g style="opacity: 0.1; transform-origin: 276.6px 348.925px;" class="animable"><polygon points="292.27 342.1 272.37 378.31 274.43 378.74 279.19 372.81 293.48 346.81 292.27 342.1" id="el797jq8mtwwd" class="animable" style="transform-origin: 282.925px 360.42px;"></polygon><polygon points="290.48 335.18 289.18 330.14 266.97 377.17 270.32 377.88 290.48 335.18" id="elfbylffb95dv" class="animable" style="transform-origin: 278.725px 354.01px;"></polygon><polygon points="259.72 375.63 263.07 376.34 287.64 324.17 286.33 319.11 259.72 375.63" id="elmnsfv2qmw48" class="animable" style="transform-origin: 273.68px 347.725px;"></polygon></g></g><polyline points="284.01 323.32 294.09 350.37 283.97 334.88" style="fill: none; stroke: rgb(38, 50, 56); stroke-miterlimit: 10; transform-origin: 289.03px 336.845px;" id="elnwc1gdhk9o" class="animable"></polyline></g><polygon points="284.76 313.02 256.19 374.89 274.43 378.74 295.09 353.02 284.76 313.02" style="fill: none; stroke: rgb(38, 50, 56); stroke-linecap: round; stroke-linejoin: round; transform-origin: 275.64px 345.88px;" id="elk26ucmmh4k" class="animable"></polygon><path d="M275.74,369.51l36.05,41.11-7,7.91-45.43-36.18s-6.23-3-2.49-9.1" style="fill: rgb(62, 176, 93); transform-origin: 283.732px 394.02px;" id="elgqf41d4bn2" class="animable"></path><g style="clip-path: url(&quot;#freepik--clip-path-4--inject-88&quot;); transform-origin: 287.06px 393.645px;" id="el3ok5jk8tjwa" class="animable"><g id="elt5ghy891vyb"><g style="opacity: 0.1; transform-origin: 287.06px 393.645px;" class="animable"><polygon points="308.01 413.48 311.39 410.59 293.21 389.43 275.74 369.51 271.04 370.44 308.01 413.48" id="ellbipcv9scb" class="animable" style="transform-origin: 291.215px 391.495px;"></polygon><polygon points="300.81 415.38 303.82 417.78 306.65 415.29 267.77 371.09 262.73 372.08 300.81 415.38" id="els0dg3cs5px" class="animable" style="transform-origin: 284.69px 394.435px;"></polygon></g></g></g><path d="M275.74,369.51l36.05,41.11-7,7.91-45.43-36.18s-6.23-3-2.49-9.1" style="fill: none; stroke: rgb(38, 50, 56); stroke-linecap: round; stroke-linejoin: round; transform-origin: 283.732px 394.02px;" id="elrg9ohurao2j" class="animable"></path><path d="M306,409.07c1-.56,18.39-4.72,18.63-2.59s5.42,4.48,7.78,4.48,4.72-1.89,5.19.94-2.12,3.07-4.24,3.3-9.44-2.12-9.44-2.12-6.84,5.66-9.67,7.07-8,1-9.9-.47S299.88,412.37,306,409.07Z" style="fill: rgb(255, 255, 255); stroke: rgb(38, 50, 56); stroke-linecap: round; stroke-linejoin: round; transform-origin: 319.907px 413.449px;" id="eld9cnffkfji5" class="animable"></path><path d="M322.05,406.24s6.6-1.89,8-1.18,2.13,14.86,2.13,14.86-.71,1.41-2.13,0-6.13-12-6.13-12" style="fill: rgb(255, 255, 255); stroke: rgb(38, 50, 56); stroke-linecap: round; stroke-linejoin: round; transform-origin: 327.115px 412.724px;" id="elz9sqs4r04yi" class="animable"></path><path d="M318.74,406.71s6.84-1.65,8.26.94,4.95,14.15,2.12,14.63-3.77-3.31-3.77-3.31l-4.48-8.25-3.07-.47" style="fill: rgb(255, 255, 255); stroke: rgb(38, 50, 56); stroke-linecap: round; stroke-linejoin: round; transform-origin: 323.994px 414.257px;" id="elj89mca5uvj" class="animable"></path><path d="M316.39,408.83s3.3-1.41,4.95-.23,9.2,13.2,7.78,13.68-4.72.23-5.19-.71-6.6-9-6.6-9" style="fill: rgb(255, 255, 255); stroke: rgb(38, 50, 56); stroke-linecap: round; stroke-linejoin: round; transform-origin: 322.843px 415.324px;" id="el3g31glvfgf1" class="animable"></path><path d="M314,412.84s3.06-2.83,4.71-1.88,8.49,9.9,7.08,10.84-2.36,0-3.77-1.88a16.5,16.5,0,0,0-3.54-3.3l-2.83.94" style="fill: rgb(255, 255, 255); stroke: rgb(38, 50, 56); stroke-linecap: round; stroke-linejoin: round; transform-origin: 319.99px 416.467px;" id="elwb8q1bag83" class="animable"></path><path d="M383.68,370.83l-12,40.83,8.68,6.06,19.61-31.52s8.06-9.1,3-14.22" style="fill: rgb(62, 176, 93); transform-origin: 388.159px 394.275px;" id="el3jwoy0tqh25" class="animable"></path><g style="clip-path: url(&quot;#freepik--clip-path-5--inject-88&quot;); transform-origin: 388.02px 394.11px;" id="elw0sypm5kmm" class="animable"><g id="elr1vfdt6j7"><g style="opacity: 0.1; transform-origin: 388.02px 394.11px;" class="animable"><polygon points="380.63 417.23 380.78 416.98 397.39 371.65 392.75 371.37 376.7 415.19 378.5 416.44 380.63 417.23" id="elomvpw0h0t5" class="animable" style="transform-origin: 387.045px 394.3px;"></polygon><polygon points="371.7 411.69 375.47 414.33 390.97 371.39 390.54 371.24 386.39 370.99 371.7 411.69" id="elqejj01cvuml" class="animable" style="transform-origin: 381.335px 392.66px;"></polygon><path d="M404.34,374.37a5.62,5.62,0,0,0-1.42-2.39l-2.38-.14L388,405.43l11.92-19.18Z" id="elf7hxl5ytmp" class="animable" style="transform-origin: 396.17px 388.635px;"></path></g></g></g><path d="M383.68,370.83l-12,40.83,8.68,6.06,19.61-31.52s8.06-9.1,3-14.22" style="fill: none; stroke: rgb(38, 50, 56); stroke-linecap: round; stroke-linejoin: round; transform-origin: 388.159px 394.275px;" id="elffrix7b9lte" class="animable"></path><path d="M377.72,409.07c-1-.56-18.4-4.72-18.63-2.59s-5.43,4.48-7.78,4.48-4.72-1.89-5.19.94,2.12,3.07,4.24,3.3,9.44-2.12,9.44-2.12,6.84,5.66,9.67,7.07,8,1,9.9-.47S383.85,412.37,377.72,409.07Z" style="fill: rgb(255, 255, 255); stroke: rgb(38, 50, 56); stroke-linecap: round; stroke-linejoin: round; transform-origin: 363.815px 413.449px;" id="el8asl025t1er" class="animable"></path><path d="M361.68,406.24s-6.6-1.89-8-1.18-2.12,14.86-2.12,14.86.71,1.41,2.12,0,6.14-12,6.14-12" style="fill: rgb(255, 255, 255); stroke: rgb(38, 50, 56); stroke-linecap: round; stroke-linejoin: round; transform-origin: 356.62px 412.724px;" id="elwtwskyzp98a" class="animable"></path><path d="M365,406.71s-6.83-1.65-8.25.94-5,14.15-2.12,14.63,3.77-3.31,3.77-3.31l4.48-8.25,3.07-.47" style="fill: rgb(255, 255, 255); stroke: rgb(38, 50, 56); stroke-linecap: round; stroke-linejoin: round; transform-origin: 359.745px 414.257px;" id="elwj1d6ihnw5" class="animable"></path><path d="M367.34,408.83s-3.3-1.41-4.95-.23-9.2,13.2-7.78,13.68,4.71.23,5.19-.71,6.6-9,6.6-9" style="fill: rgb(255, 255, 255); stroke: rgb(38, 50, 56); stroke-linecap: round; stroke-linejoin: round; transform-origin: 360.887px 415.324px;" id="elp9tfgckmbji" class="animable"></path><path d="M369.7,412.84S366.64,410,365,411s-8.49,9.9-7.07,10.84,2.36,0,3.77-1.88a16.5,16.5,0,0,1,3.54-3.3l2.83.94" style="fill: rgb(255, 255, 255); stroke: rgb(38, 50, 56); stroke-linecap: round; stroke-linejoin: round; transform-origin: 363.719px 416.498px;" id="elbjs3yp9xr5e" class="animable"></path><path d="M323.66,292.13s-5.71,1.76-8.13,5.28.44,30.77.44,30.77l18.25-10.11,19.12,12.09s-1.76-27.91-3.3-31.87-11.21-8.57-14.51-8.13S323.66,292.13,323.66,292.13Z" style="fill: rgb(62, 176, 93); stroke: rgb(38, 50, 56); stroke-linecap: round; stroke-linejoin: round; transform-origin: 333.949px 310.145px;" id="elqzxrkzna2bc" class="animable"></path><polygon points="321.03 276.97 321.03 302.25 333.12 334.78 343.45 301.59 343.45 276.75 321.03 276.97" style="fill: rgb(255, 255, 255); stroke: rgb(38, 50, 56); stroke-linecap: round; stroke-linejoin: round; transform-origin: 332.24px 305.765px;" id="el84g9un3rxx8" class="animable"></polygon><path d="M321,286.05a20.23,20.23,0,0,0,11.65,3.67h0a20.2,20.2,0,0,0,10.77-3.1v-9.87L321,277Z" style="fill: rgb(38, 50, 56); stroke: rgb(38, 50, 56); stroke-linecap: round; stroke-linejoin: round; transform-origin: 332.21px 283.235px;" id="els9dbdoijbtr" class="animable"></path><path d="M332.68,284h0a20.37,20.37,0,0,1-20.37-20.36L308.72,235a24,24,0,0,1,24-24h0a24,24,0,0,1,24,24L353,263.6A20.36,20.36,0,0,1,332.68,284Z" style="fill: rgb(255, 255, 255); stroke: rgb(38, 50, 56); stroke-linecap: round; stroke-linejoin: round; transform-origin: 332.72px 247.5px;" id="elfcag0q5p3g" class="animable"></path><path d="M337.91,255.8s5.19-4.35,11.39.34" style="fill: none; stroke: rgb(38, 50, 56); stroke-linecap: round; stroke-linejoin: round; transform-origin: 343.605px 255.052px;" id="eldcj2lls4vce" class="animable"></path><path d="M328.53,255.3a7.86,7.86,0,0,0-5.19-1.17" style="fill: none; stroke: rgb(38, 50, 56); stroke-linecap: round; stroke-linejoin: round; transform-origin: 325.935px 254.685px;" id="elq2rpqgd1kcg" class="animable"></path><path d="M339.92,245.42s5.53-2.68,8.88,2.51" style="fill: none; stroke: rgb(38, 50, 56); stroke-linecap: round; stroke-linejoin: round; transform-origin: 344.36px 246.329px;" id="el71435fgjlii" class="animable"></path><path d="M331,267.36s2.35,1.84,4.36,0" style="fill: none; stroke: rgb(38, 50, 56); stroke-linecap: round; stroke-linejoin: round; transform-origin: 333.18px 267.769px;" id="elq9hiheyb67g" class="animable"></path><path d="M328.7,271.38s4.86,3,7.7,0" style="fill: none; stroke: rgb(38, 50, 56); stroke-linecap: round; stroke-linejoin: round; transform-origin: 332.55px 272.047px;" id="elyq2z6gv1eoa" class="animable"></path><path d="M342.92,232s-20.08,18.54-25.68,32.05-.58,27.62,2.51,31.68,5,4.63,5,4.63-10.62,4.06-17.57-6.56-5.22-22.6-3.09-30.9,1.54-32.64,6.37-40.75,11.78-14.1,23.37-12.75,17.76,7.34,21.43,14.87,1.93,20.28,3.09,25.88,6.18,22.4,7.34,32.44S353.16,299.78,351,300.75a12.85,12.85,0,0,1-4.63,1s4.63-23.17,5.6-36.5S353,244,353,244,343.89,232.58,342.92,232Z" style="fill: rgb(38, 50, 56); transform-origin: 333.985px 255.48px;" id="elghws6iihwb" class="animable"></path><g style="clip-path: url(&quot;#freepik--clip-path-6--inject-88&quot;); transform-origin: 328.489px 259.085px;" id="elf409kmhyubl" class="animable"><path d="M340.57,219s-2.37,6.53-19.42,25.24-21.68,36.56-16.5,54" style="fill: none; stroke: rgb(112, 112, 112); stroke-miterlimit: 10; transform-origin: 321.607px 258.62px;" id="elyts29mt43v" class="animable"></path><path d="M336.36,212.48s-9.38,7.77-21,19.41a108.81,108.81,0,0,0-18.12,24.27" style="fill: none; stroke: rgb(112, 112, 112); stroke-miterlimit: 10; transform-origin: 316.8px 234.32px;" id="eljm02lnrb7z" class="animable"></path><path d="M344.77,220.57s7.12,12.94,11,20.71,8.42,51.44-5.17,67" style="fill: none; stroke: rgb(112, 112, 112); stroke-miterlimit: 10; transform-origin: 352.254px 264.425px;" id="eljko919k7qal" class="animable"></path><line x1="339.92" y1="209.89" x2="342.92" y2="232" style="fill: none; stroke: rgb(112, 112, 112); stroke-miterlimit: 10; transform-origin: 341.42px 220.945px;" id="el65wk74qzta4" class="animable"></line></g><path d="M342.92,232s-20.08,18.54-25.68,32.05-.58,27.62,2.51,31.68,5,4.63,5,4.63-10.62,4.06-17.57-6.56-5.22-22.6-3.09-30.9,1.54-32.64,6.37-40.75,11.78-14.1,23.37-12.75,17.76,7.34,21.43,14.87,1.93,20.28,3.09,25.88,6.18,22.4,7.34,32.44S353.16,299.78,351,300.75a12.85,12.85,0,0,1-4.63,1s4.63-23.17,5.6-36.5S353,244,353,244,343.89,232.58,342.92,232Z" style="fill: none; stroke: rgb(38, 50, 56); stroke-linecap: round; stroke-linejoin: round; transform-origin: 333.985px 255.48px;" id="elajroawr0muf" class="animable"></path><rect x="300.82" y="244.94" width="8.88" height="17.77" rx="2.96" style="fill: rgb(255, 255, 255); stroke: rgb(38, 50, 56); stroke-linecap: round; stroke-linejoin: round; transform-origin: 305.26px 253.825px;" id="elpjdw24i9tvq" class="animable"></rect><rect x="355.09" y="244.94" width="8.88" height="17.77" rx="2.96" style="fill: rgb(255, 255, 255); stroke: rgb(38, 50, 56); stroke-linecap: round; stroke-linejoin: round; transform-origin: 359.53px 253.825px;" id="el8sjknfplpvn" class="animable"></rect><path d="M360.3,244.94v-9.66a28.19,28.19,0,0,0-28.19-28.19h0a28.2,28.2,0,0,0-28.2,28.19v9.66" style="fill: none; stroke: rgb(38, 50, 56); stroke-linejoin: round; stroke-width: 2px; transform-origin: 332.105px 226.015px;" id="elhg9mjrvodwf" class="animable"></path><path d="M359.53,262.62s-1.25,9.67-13.08,13.61" style="fill: none; stroke: rgb(38, 50, 56); stroke-linecap: round; stroke-linejoin: round; transform-origin: 352.99px 269.425px;" id="elruoijtvsee" class="animable"></path><path d="M346,275.81c.5,1.45-.91,3.25-3.16,4s-4.46.24-5-1.21.91-3.25,3.15-4S345.53,274.36,346,275.81Z" style="fill: none; stroke: rgb(38, 50, 56); stroke-linecap: round; stroke-linejoin: round; transform-origin: 341.914px 277.205px;" id="elh04i42e20fu" class="animable"></path></g><g id="freepik--character-1--inject-88" class="animable" style="transform-origin: 153.59px 315.315px;"><polygon points="143.6 288.28 102.28 307.97 114.2 424.74 196.57 424.74 208.22 306.03 169.39 288 143.6 288.28" style="fill: rgb(62, 176, 93); stroke: rgb(38, 50, 56); stroke-linecap: round; stroke-linejoin: round; transform-origin: 155.25px 356.37px;" id="elbfj8je69dsr" class="animable"></polygon><circle cx="160.16" cy="322.51" r="1.4" style="fill: rgb(38, 50, 56); transform-origin: 160.16px 322.51px;" id="elfom05vci3sw" class="animable"></circle><path d="M161.56,330.91a1.4,1.4,0,1,1-1.4-1.4A1.4,1.4,0,0,1,161.56,330.91Z" style="fill: rgb(38, 50, 56); transform-origin: 160.16px 330.91px;" id="elqo9s5q6xoda" class="animable"></path><polygon points="174.49 294.24 163.2 306.83 158.38 319.06 153.19 306.65 142.27 294.24 142.27 272.2 174.49 272.2 174.49 294.24" style="fill: rgb(255, 255, 255); stroke: rgb(38, 50, 56); stroke-linecap: round; stroke-linejoin: round; transform-origin: 158.38px 295.63px;" id="el7v2wuf43bpi" class="animable"></polygon><path d="M142.27,282a22.62,22.62,0,0,0,17.5,8.25h0a22.56,22.56,0,0,0,14.72-5.44V272.2H142.27Z" style="fill: rgb(38, 50, 56); stroke: rgb(38, 50, 56); stroke-linecap: round; stroke-linejoin: round; transform-origin: 158.38px 281.225px;" id="el4ap8ndke9ww" class="animable"></path><rect x="137.08" y="210.52" width="45.38" height="73.53" rx="20.42" style="fill: rgb(255, 255, 255); stroke: rgb(38, 50, 56); stroke-linecap: round; stroke-linejoin: round; transform-origin: 159.77px 247.285px;" id="el39kux1kzkrm" class="animable"></rect><path d="M164.12,243.12l-.67,16.07a3.4,3.4,0,0,1-2.29,3.15c-1.21.37-2.59,0-3.34-2.73" style="fill: none; stroke: rgb(38, 50, 56); stroke-linecap: round; stroke-linejoin: round; transform-origin: 160.97px 252.79px;" id="elv7qhrgb1nq" class="animable"></path><path d="M151,265.53h18s-3.15,6.86-9.26,6.86S151,265.53,151,265.53Z" style="fill: rgb(38, 50, 56); stroke: rgb(38, 50, 56); stroke-linecap: round; stroke-linejoin: round; transform-origin: 160px 268.96px;" id="el4j35684ssua" class="animable"></path><path d="M152.28,267.94h15.16a14.77,14.77,0,0,0,1.5-2.41H151A13.11,13.11,0,0,0,152.28,267.94Z" style="fill: rgb(255, 255, 255); stroke: rgb(38, 50, 56); stroke-linecap: round; stroke-linejoin: round; transform-origin: 159.97px 266.735px;" id="elyxwu4oxwp7" class="animable"></path><ellipse cx="150.79" cy="247.29" rx="1.3" ry="3.06" style="fill: rgb(38, 50, 56); transform-origin: 150.79px 247.29px;" id="elln9hx8nljv" class="animable"></ellipse><ellipse cx="170.23" cy="247.29" rx="1.3" ry="3.06" style="fill: rgb(38, 50, 56); transform-origin: 170.23px 247.29px;" id="elyxmpmv319q" class="animable"></ellipse><path d="M166.16,239.23s4.44-2.78,9.45,1.67" style="fill: none; stroke: rgb(38, 50, 56); stroke-linecap: round; stroke-linejoin: round; transform-origin: 170.885px 239.636px;" id="elfdi4a4ugk1f" class="animable"></path><path d="M159.77,210.52h0a22.69,22.69,0,0,0-22.69,22.69v20.67l.19,0h1.85v-8.52s9.26,0,20.19-5.92S173,223.86,173,223.86s2.41,11.67,5,13.89l2.6,2.22v14.08h1.85V233.21A22.69,22.69,0,0,0,159.77,210.52Z" style="fill: rgb(38, 50, 56); stroke: rgb(38, 50, 56); stroke-linecap: round; stroke-linejoin: round; transform-origin: 159.765px 232.285px;" id="elihg7bou7v4d" class="animable"></path><path d="M132.83,242.94h4.25a0,0,0,0,1,0,0v16.85a0,0,0,0,1,0,0h-4.25a4.08,4.08,0,0,1-4.08-4.08V247A4.08,4.08,0,0,1,132.83,242.94Z" style="fill: rgb(255, 255, 255); stroke: rgb(38, 50, 56); stroke-linecap: round; stroke-linejoin: round; transform-origin: 132.915px 251.365px;" id="eldn8ak26pn0d" class="animable"></path><g id="el0k2wbto4l3bp"><path d="M186.26,242.94h4.25a0,0,0,0,1,0,0v16.85a0,0,0,0,1,0,0h-4.25a4.08,4.08,0,0,1-4.08-4.08V247A4.08,4.08,0,0,1,186.26,242.94Z" style="fill: rgb(255, 255, 255); stroke: rgb(38, 50, 56); stroke-linecap: round; stroke-linejoin: round; transform-origin: 186.345px 251.365px; transform: rotate(180deg);" class="animable"></path></g><path d="M133.38,242.94V232.19a26.3,26.3,0,0,1,26.3-26.3h0a26.31,26.31,0,0,1,26.3,26.3v10.75" style="fill: none; stroke: rgb(38, 50, 56); stroke-linejoin: round; stroke-width: 2px; transform-origin: 159.68px 224.415px;" id="elss6wyu0orib" class="animable"></path><path d="M186,259.79s-1.3,10-13.52,14.08" style="fill: none; stroke: rgb(38, 50, 56); stroke-linecap: round; stroke-linejoin: round; transform-origin: 179.24px 266.83px;" id="el6f0huub75ap" class="animable"></path><path d="M172,273.43c.52,1.5-.94,3.36-3.26,4.17s-4.62.24-5.14-1.26.94-3.36,3.26-4.17S171.51,271.93,172,273.43Z" style="fill: none; stroke: rgb(38, 50, 56); stroke-linecap: round; stroke-linejoin: round; transform-origin: 167.8px 274.885px;" id="elbvudxm1wkkr" class="animable"></path><polygon points="102.28 307.97 67.33 381.92 81.75 394.5 107.82 361.78 102.28 307.97" style="fill: rgb(62, 176, 93); stroke: rgb(38, 50, 56); stroke-linecap: round; stroke-linejoin: round; transform-origin: 87.575px 351.235px;" id="el6xei7rtlrdw" class="animable"></polygon><polyline points="99.41 330.64 107.9 359.28 97.82 342.83" style="fill: none; stroke: rgb(38, 50, 56); stroke-miterlimit: 10; transform-origin: 102.86px 344.96px;" id="elh32kou6u2cu" class="animable"></polyline><polygon points="208.22 306.03 241.5 380.36 220.98 389.24 202.67 359.84 208.22 306.03" style="fill: rgb(62, 176, 93); stroke: rgb(38, 50, 56); stroke-linecap: round; stroke-linejoin: round; transform-origin: 222.085px 347.635px;" id="elz3f3bbodb7m" class="animable"></polygon><polyline points="86.19 380.08 116.14 408.09 107.82 417.8 64.28 390.79 69.28 377.48" style="fill: rgb(62, 176, 93); stroke: rgb(38, 50, 56); stroke-linecap: round; stroke-linejoin: round; transform-origin: 90.21px 397.64px;" id="ela53xuisitab" class="animable"></polyline><path d="M111.15,406.43c1.22-.66,21.63-5.55,21.91-3.05s6.38,5.27,9.15,5.27,5.55-2.22,6.1,1.11-2.49,3.6-5,3.88-11.09-2.5-11.09-2.5-8,6.66-11.37,8.33-9.43,1.1-11.65-.56S103.94,410.31,111.15,406.43Z" style="fill: rgb(255, 255, 255); stroke: rgb(38, 50, 56); stroke-linecap: round; stroke-linejoin: round; transform-origin: 127.501px 411.574px;" id="elwjcbnhbg97n" class="animable"></path><path d="M130,403.1s7.77-2.22,9.43-1.38,2.5,17.47,2.5,17.47-.84,1.66-2.5,0S132.23,405,132.23,405" style="fill: rgb(255, 255, 255); stroke: rgb(38, 50, 56); stroke-linecap: round; stroke-linejoin: round; transform-origin: 135.965px 410.729px;" id="eljvy7juoyan" class="animable"></path><path d="M126.13,403.66s8-1.94,9.7,1.11,5.83,16.64,2.5,17.19-4.44-3.88-4.44-3.88l-5.27-9.71-3.6-.55" style="fill: rgb(255, 255, 255); stroke: rgb(38, 50, 56); stroke-linecap: round; stroke-linejoin: round; transform-origin: 132.305px 412.53px;" id="elia3qjx6duc8" class="animable"></path><path d="M123.35,406.15s3.89-1.66,5.83-.27S140,421.41,138.33,422s-5.55.28-6.1-.83-7.77-10.54-7.77-10.54" style="fill: rgb(255, 255, 255); stroke: rgb(38, 50, 56); stroke-linecap: round; stroke-linejoin: round; transform-origin: 130.944px 413.809px;" id="el0xemu7gtd8c" class="animable"></path><path d="M120.58,410.87s3.61-3.33,5.55-2.22,10,11.65,8.32,12.76-2.78,0-4.44-2.22a19.43,19.43,0,0,0-4.16-3.89l-3.33,1.11" style="fill: rgb(255, 255, 255); stroke: rgb(38, 50, 56); stroke-linecap: round; stroke-linejoin: round; transform-origin: 127.629px 415.134px;" id="elotnqj42l4c" class="animable"></path><polyline points="215.95 373 198.39 410.06 209.69 416.03 242.9 380.84 233.37 370.29" style="fill: rgb(62, 176, 93); stroke: rgb(38, 50, 56); stroke-linecap: round; stroke-linejoin: round; transform-origin: 220.645px 393.16px;" id="elatmjbn6np7n" class="animable"></polyline><path d="M207.18,406.43c-1.22-.66-21.64-5.55-21.91-3.05s-6.38,5.27-9.16,5.27-5.54-2.22-6.1,1.11,2.5,3.6,5,3.88,11.09-2.5,11.09-2.5,8,6.66,11.37,8.33,9.43,1.1,11.65-.56S214.39,410.31,207.18,406.43Z" style="fill: rgb(255, 255, 255); stroke: rgb(38, 50, 56); stroke-linecap: round; stroke-linejoin: round; transform-origin: 190.821px 411.574px;" id="elb1sjszhtsnc" class="animable"></path><path d="M188.32,403.1s-7.77-2.22-9.43-1.38-2.5,17.47-2.5,17.47.83,1.66,2.5,0S186.1,405,186.1,405" style="fill: rgb(255, 255, 255); stroke: rgb(38, 50, 56); stroke-linecap: round; stroke-linejoin: round; transform-origin: 182.355px 410.729px;" id="el7uvhxevvi0g" class="animable"></path><path d="M192.2,403.66s-8-1.94-9.71,1.11S176.67,421.41,180,422s4.43-3.88,4.43-3.88l5.27-9.71,3.61-.55" style="fill: rgb(255, 255, 255); stroke: rgb(38, 50, 56); stroke-linecap: round; stroke-linejoin: round; transform-origin: 186.023px 412.553px;" id="el8q0d1x13oms" class="animable"></path><path d="M195,406.15s-3.88-1.66-5.82-.27S178.33,421.41,180,422s5.54.28,6.1-.83,7.76-10.54,7.76-10.54" style="fill: rgb(255, 255, 255); stroke: rgb(38, 50, 56); stroke-linecap: round; stroke-linejoin: round; transform-origin: 187.396px 413.809px;" id="el47sp3o2ieom" class="animable"></path><path d="M197.75,410.87s-3.61-3.33-5.55-2.22-10,11.65-8.32,12.76,2.77,0,4.44-2.22a19.43,19.43,0,0,1,4.16-3.89l3.33,1.11" style="fill: rgb(255, 255, 255); stroke: rgb(38, 50, 56); stroke-linecap: round; stroke-linejoin: round; transform-origin: 190.701px 415.134px;" id="elkxmz5o4ea5" class="animable"></path></g><g id="freepik--text-balloon--inject-88" class="animable animator-active" style="transform-origin: 227.145px 196.24px;"><path d="M259.66,168.21h-65a11.37,11.37,0,0,0-11.37,11.36v19A11.37,11.37,0,0,0,194.64,210h8l-10.91,14.27L216.26,210h43.4A11.37,11.37,0,0,0,271,198.6v-19A11.37,11.37,0,0,0,259.66,168.21Z" style="fill: rgb(255, 255, 255); stroke: rgb(38, 50, 56); stroke-miterlimit: 10; transform-origin: 227.145px 196.24px;" id="elgity2vdutv" class="animable"></path><path d="M218.23,190.41a2.65,2.65,0,1,1-2.65-2.64A2.65,2.65,0,0,1,218.23,190.41Z" style="fill: rgb(38, 50, 56); transform-origin: 215.58px 190.42px;" id="eltzb5ar0ezhj" class="animable"></path><path d="M229.79,190.41a2.65,2.65,0,1,1-2.64-2.64A2.64,2.64,0,0,1,229.79,190.41Z" style="fill: rgb(38, 50, 56); transform-origin: 227.14px 190.42px;" id="elybp0bdfegnh" class="animable"></path><path d="M241.35,190.41a2.64,2.64,0,1,1-2.64-2.64A2.64,2.64,0,0,1,241.35,190.41Z" style="fill: rgb(38, 50, 56); transform-origin: 238.71px 190.41px;" id="eliat6xh8klc" class="animable"></path></g><g id="freepik--device-2--inject-88" class="animable" style="transform-origin: 349.745px 381.265px;"><rect x="271.31" y="421.73" width="121.14" height="4.89" style="fill: rgb(255, 255, 255); stroke: rgb(38, 50, 56); stroke-linecap: round; stroke-linejoin: round; transform-origin: 331.88px 424.175px;" id="eldqdogu4g4z8" class="animable"></rect><rect x="305.47" y="421.73" width="105.59" height="4.89" style="fill: rgb(255, 255, 255); stroke: rgb(38, 50, 56); stroke-linecap: round; stroke-linejoin: round; transform-origin: 358.265px 424.175px;" id="el19g70p21tvq" class="animable"></rect><polygon points="413.11 413.04 312.09 413.04 322.98 335.91 424 335.91 413.11 413.04" style="fill: rgb(255, 255, 255); stroke: rgb(38, 50, 56); stroke-linecap: round; stroke-linejoin: round; transform-origin: 368.045px 374.475px;" id="elgqfh0hfiufe" class="animable"></polygon><polygon points="417.29 413.04 316.27 413.04 327.16 335.91 428.18 335.91 417.29 413.04" style="fill: rgb(38, 50, 56); stroke: rgb(38, 50, 56); stroke-linecap: round; stroke-linejoin: round; transform-origin: 372.225px 374.475px;" id="el4euc26wsxsf" class="animable"></polygon><path d="M386.33,377.19l10.14,49.42H370.4l-10.13-49.42Zm-17.68,14.67a.92.92,0,0,0,.9.7l14.77-.14a.92.92,0,0,0,.88-1.14l-1.33-5.54a.93.93,0,0,0-.9-.71l-14.77.14a.93.93,0,0,0-.89,1.14Z" style="fill: rgb(255, 255, 255); stroke: rgb(38, 50, 56); stroke-linecap: round; stroke-linejoin: round; transform-origin: 378.37px 401.9px;" id="el0qmceau5oywr" class="animable"></path></g><g id="freepik--device-1--inject-88" class="animable" style="transform-origin: 170.565px 381.265px;"><rect x="92.13" y="421.73" width="121.14" height="4.89" style="fill: rgb(255, 255, 255); stroke: rgb(38, 50, 56); stroke-linecap: round; stroke-linejoin: round; transform-origin: 152.7px 424.175px;" id="elzprhf1swih" class="animable"></rect><rect x="126.29" y="421.73" width="105.59" height="4.89" style="fill: rgb(255, 255, 255); stroke: rgb(38, 50, 56); stroke-linecap: round; stroke-linejoin: round; transform-origin: 179.085px 424.175px;" id="el9ktxspngcrj" class="animable"></rect><polygon points="233.93 413.04 132.91 413.04 143.8 335.91 244.82 335.91 233.93 413.04" style="fill: rgb(255, 255, 255); stroke: rgb(38, 50, 56); stroke-linecap: round; stroke-linejoin: round; transform-origin: 188.865px 374.475px;" id="elwswjto51me" class="animable"></polygon><polygon points="238.11 413.04 137.09 413.04 147.98 335.91 249 335.91 238.11 413.04" style="fill: rgb(38, 50, 56); stroke: rgb(38, 50, 56); stroke-linecap: round; stroke-linejoin: round; transform-origin: 193.045px 374.475px;" id="elckc6zj5p5mg" class="animable"></polygon><path d="M207.16,377.19l10.13,49.42H191.22l-10.13-49.42Zm-17.69,14.67a.93.93,0,0,0,.9.7l14.77-.14a.93.93,0,0,0,.89-1.14l-1.34-5.54a.92.92,0,0,0-.9-.71l-14.77.14a.92.92,0,0,0-.88,1.14Z" style="fill: rgb(255, 255, 255); stroke: rgb(38, 50, 56); stroke-linecap: round; stroke-linejoin: round; transform-origin: 199.19px 401.9px;" id="elepw3brdhgkt" class="animable"></path></g><g id="freepik--Table--inject-88" class="animable" style="transform-origin: 245.29px 429.03px;"><rect x="29.83" y="426.61" width="430.92" height="4.84" style="fill: rgb(38, 50, 56); stroke: rgb(38, 50, 56); stroke-linecap: round; stroke-linejoin: round; transform-origin: 245.29px 429.03px;" id="elysguq1ix4ln" class="animable"></rect></g><defs>     <filter id="active" height="200%">         <feMorphology in="SourceAlpha" result="DILATED" operator="dilate" radius="2"></feMorphology>                <feFlood flood-color="#32DFEC" flood-opacity="1" result="PINK"></feFlood>        <feComposite in="PINK" in2="DILATED" operator="in" result="OUTLINE"></feComposite>        <feMerge>            <feMergeNode in="OUTLINE"></feMergeNode>            <feMergeNode in="SourceGraphic"></feMergeNode>        </feMerge>    </filter>    <filter id="hover" height="200%">        <feMorphology in="SourceAlpha" result="DILATED" operator="dilate" radius="2"></feMorphology>                <feFlood flood-color="#ff0000" flood-opacity="0.5" result="PINK"></feFlood>        <feComposite in="PINK" in2="DILATED" operator="in" result="OUTLINE"></feComposite>        <feMerge>            <feMergeNode in="OUTLINE"></feMergeNode>            <feMergeNode in="SourceGraphic"></feMergeNode>        </feMerge>            <feColorMatrix type="matrix" values="0   0   0   0   0                0   1   0   0   0                0   0   0   0   0                0   0   0   1   0 "></feColorMatrix>    </filter></defs><defs><clipPath id="freepik--clip-path--inject-88"><polygon points="376.42 313.24 404.27 374.02 386.75 378.96 366.09 353.24 376.42 313.24" style="fill:#3EB05D;stroke:#263238;stroke-linecap:round;stroke-linejoin:round"></polygon></clipPath><clipPath id="freepik--clip-path-2--inject-88"><polygon points="321.03 296.31 284.76 313.02 304.1 391.49 297.94 424.5 366.75 424.5 359.94 388.63 376.64 313.24 338.61 297.63 321.03 296.31" style="fill:#3EB05D;stroke:#263238;stroke-linecap:round;stroke-linejoin:round"></polygon></clipPath><clipPath id="freepik--clip-path-3--inject-88"><polygon points="284.76 313.02 256.19 374.89 274.43 378.74 295.09 353.02 284.76 313.02" style="fill:#3EB05D;stroke:#263238;stroke-linecap:round;stroke-linejoin:round"></polygon></clipPath><clipPath id="freepik--clip-path-4--inject-88"><path d="M275.74,369.51l36.05,41.11-7,7.91-45.43-36.18s-6.23-3-2.49-9.1" style="fill:#3EB05D;stroke:#263238;stroke-linecap:round;stroke-linejoin:round"></path></clipPath><clipPath id="freepik--clip-path-5--inject-88"><path d="M383.68,370.83l-12,40.83,8.68,6.06,19.61-31.52s8.06-9.1,3-14.22" style="fill:#3EB05D;stroke:#263238;stroke-linecap:round;stroke-linejoin:round"></path></clipPath><clipPath id="freepik--clip-path-6--inject-88"><path d="M342.92,232s-20.08,18.54-25.68,32.05-.58,27.62,2.51,31.68,5,4.63,5,4.63-10.62,4.06-17.57-6.56-5.22-22.6-3.09-30.9,1.54-32.64,6.37-40.75,11.78-14.1,23.37-12.75,17.76,7.34,21.43,14.87,1.93,20.28,3.09,25.88,6.18,22.4,7.34,32.44S353.16,299.78,351,300.75a12.85,12.85,0,0,1-4.63,1s4.63-23.17,5.6-36.5S353,244,353,244,343.89,232.58,342.92,232Z" style="fill:#263238;stroke:#263238;stroke-linecap:round;stroke-linejoin:round"></path></clipPath></defs></svg>